<svg width="408" height="391" viewBox="0 0 408 391" fill="none" xmlns="http://www.w3.org/2000/svg">
<circle cx="211" cy="197" r="171" fill="#F4F4E8" fill-opacity="0.1"/>
<circle cx="210.5" cy="195.5" r="195.5" fill="#F4F4E8" fill-opacity="0.1"/>
<circle cx="211" cy="197" r="121" fill="#F4F4E8"/>
<ellipse cx="136.655" cy="146.811" rx="10.5" ry="20.5" transform="rotate(52.4958 136.655 146.811)" fill="#C4C4C4"/>
<ellipse cx="282.336" cy="266.199" rx="6.14182" ry="13.9262" transform="rotate(24.3411 282.336 266.199)" fill="#C4C4C4"/>
<ellipse cx="182.074" cy="95.5498" rx="6.14182" ry="13.9262" transform="rotate(58.257 182.074 95.5498)" fill="#C4C4C4"/>
<ellipse cx="107.126" cy="195.229" rx="6.14182" ry="6.932" transform="rotate(58.257 107.126 195.229)" fill="#C4C4C4"/>
<ellipse cx="283.378" cy="126.539" rx="16.9194" ry="4.08797" transform="rotate(58.257 283.378 126.539)" fill="#C4C4C4"/>
<ellipse cx="216.304" cy="211.021" rx="9.87727" ry="10.1441" transform="rotate(-104.583 216.304 211.021)" fill="#C4C4C4"/>
<ellipse cx="237.659" cy="165.659" rx="6.14182" ry="6.1049" transform="rotate(-44.3195 237.659 165.659)" fill="#C4C4C4"/>
<ellipse cx="235.029" cy="116.44" rx="10.5" ry="20.5" transform="rotate(116.067 235.029 116.44)" fill="#C4C4C4"/>
<ellipse cx="250.607" cy="241.766" rx="10.5" ry="16.6908" transform="rotate(116.067 250.607 241.766)" fill="#C4C4C4" fill-opacity="0.5"/>
<ellipse cx="172.954" cy="291.792" rx="10.5" ry="12.1239" transform="rotate(55.008 172.954 291.792)" fill="#C4C4C4" fill-opacity="0.5"/>
<ellipse cx="198.852" cy="144.482" rx="7.62338" ry="9.13118" transform="rotate(55.008 198.852 144.482)" fill="#C4C4C4" fill-opacity="0.5"/>
<ellipse cx="217.625" cy="276.059" rx="23.8352" ry="12.5544" transform="rotate(103.087 217.625 276.059)" fill="#C4C4C4"/>
<ellipse cx="177.05" cy="176.895" rx="10.5" ry="20.5" transform="rotate(-33.3955 177.05 176.895)" fill="#C4C4C4"/>
<ellipse cx="145" cy="239.803" rx="17.7884" ry="31.1558" transform="rotate(-33.3955 145 239.803)" fill="#C4C4C4"/>
<ellipse cx="290.468" cy="194.779" rx="17.7884" ry="31.1558" transform="rotate(25.4995 290.468 194.779)" fill="#C4C4C4"/>
<circle cx="211" cy="197" r="146" fill="#F4F4E8" fill-opacity="0.1"/>
<ellipse cx="304.145" cy="307.645" rx="32.1455" ry="19.3548" fill="white"/>
<ellipse cx="375.855" cy="307.645" rx="32.1455" ry="19.3548" fill="white"/>
<ellipse cx="350.145" cy="292.355" rx="32.1455" ry="19.3548" fill="white"/>
<rect x="304.145" y="305.323" width="70.0606" height="21.6774" fill="white"/>
<ellipse cx="32.1455" cy="272.645" rx="32.1455" ry="19.3548" fill="white"/>
<ellipse cx="103.855" cy="272.645" rx="32.1455" ry="19.3548" fill="white"/>
<ellipse cx="75.1455" cy="256.355" rx="32.1455" ry="19.3548" fill="white"/>
<rect x="32.1455" y="270.323" width="70.0606" height="21.6774" fill="white"/>
<ellipse cx="111.982" cy="334.323" rx="47.9818" ry="34.6774" fill="white"/>
<ellipse cx="219.018" cy="334.323" rx="47.9818" ry="34.6774" fill="white"/>
<ellipse cx="176.982" cy="304.677" rx="47.9818" ry="34.6774" fill="white"/>
<rect x="111.982" y="330.161" width="104.576" height="38.8387" fill="white"/>
</svg>
