<svg width="408" height="391" viewBox="0 0 408 391" fill="none" xmlns="http://www.w3.org/2000/svg">
<circle cx="210.5" cy="195.5" r="195.5" fill="#F9C846" fill-opacity="0.1"/>
<circle cx="211" cy="197" r="171" fill="#F9C846" fill-opacity="0.1"/>
<circle cx="211" cy="197" r="146" fill="#F9C846" fill-opacity="0.1"/>
<circle cx="211" cy="197" r="121" fill="#F9C846"/>
<ellipse cx="172.954" cy="291.792" rx="10.5" ry="12.1239" transform="rotate(55.008 172.954 291.792)" fill="#F9C846" fill-opacity="0.5"/>
<ellipse cx="304.145" cy="307.645" rx="32.1455" ry="19.3548" fill="white"/>
<ellipse cx="375.855" cy="307.645" rx="32.1455" ry="19.3548" fill="white"/>
<ellipse cx="350.145" cy="292.355" rx="32.1455" ry="19.3548" fill="white"/>
<rect x="304.145" y="305.323" width="70.0606" height="21.6774" fill="white"/>
<ellipse cx="32.1455" cy="272.645" rx="32.1455" ry="19.3548" fill="white"/>
<ellipse cx="103.855" cy="272.645" rx="32.1455" ry="19.3548" fill="white"/>
<ellipse cx="75.1455" cy="256.355" rx="32.1455" ry="19.3548" fill="white"/>
<rect x="32.1454" y="270.323" width="70.0606" height="21.6774" fill="white"/>
<ellipse cx="111.982" cy="334.323" rx="47.9818" ry="34.6774" fill="white"/>
<ellipse cx="219.018" cy="334.323" rx="47.9818" ry="34.6774" fill="white"/>
<ellipse cx="176.982" cy="304.677" rx="47.9818" ry="34.6774" fill="white"/>
<rect x="111.982" y="330.161" width="104.576" height="38.8387" fill="white"/>
</svg>
